<?xml version="1.0" encoding="utf-8"?>
<!-- Generator: Adobe Illustrator 21.0.0, SVG Export Plug-In . SVG Version: 6.00 Build 0)  -->
<svg version="1.1" xmlns="http://www.w3.org/2000/svg" xmlns:xlink="http://www.w3.org/1999/xlink" x="0px" y="0px"
	 viewBox="0 0 207.2 249.1" style="enable-background:new 0 0 207.2 249.1;" xml:space="preserve">
<style type="text/css">
	.st0{fill:none;}
	.st1{fill:#E53622;}
	.st2{fill:#FFCF01;}
	.st3{fill:#FFFFFF;}
</style>
<g id="Laag_1">
	<path class="st0" d="M157.1,87c-2.8,7-7,13.3-12.4,18.6c-5.4,5.4-11.6,9.5-18.6,12.4c-6.7,2.7-13.9,4.1-21.2,4.1
		c-7.3,0-14.4-1.4-21.2-4.1c-7-2.8-13.3-7-18.6-12.4C59.7,100.2,55.5,94,52.7,87c-2.7-6.7-4.1-13.9-4.1-21.2c0-6.1,1-12.1,2.9-17.9
		l-18,4.5c-1.3,12.8-2.1,34.1,2.3,57.9c8.3,45.4,31.1,80.5,67.8,104.6c37.1-24.3,60-59.9,68.1-106c4.1-23.5,3.3-44.1,2.1-56.6
		l-15.3-3.9c1.8,5.5,2.7,11.3,2.7,17.2C161.2,73.1,159.8,80.2,157.1,87z"/>
	<path class="st1" d="M192.6,35.6l-51.7-13.1c1.3,1.1,2.6,2.3,3.8,3.5c5.4,5.4,9.5,11.6,12.4,18.6c0.5,1.3,1,2.7,1.4,4l15.3,3.9
		c1.2,12.5,2,33.1-2.1,56.6c-8.1,46.1-30.9,81.7-68.1,106c-36.7-24.1-59.5-59.2-67.8-104.6c-4.4-23.8-3.6-45.1-2.3-57.9l18-4.5
		c0.4-1.1,0.8-2.2,1.2-3.3c2.8-7,7-13.3,12.4-18.6c1.6-1.6,3.2-3,5-4.4l-55.4,14c0,0-29.1,137.6,88.9,204
		C221.6,173.2,192.6,35.6,192.6,35.6z"/>
	<g>
		<path class="st2" d="M52.7,44.6c-0.4,1.1-0.8,2.2-1.2,3.3c-1.9,5.8-2.9,11.7-2.9,17.9c0,7.3,1.4,14.4,4.1,21.2
			c2.8,7,7,13.3,12.4,18.6c5.4,5.4,11.6,9.5,18.6,12.4c6.7,2.7,13.9,4.1,21.2,4.1c7.3,0,14.4-1.4,21.2-4.1c7-2.8,13.3-7,18.6-12.4
			c5.4-5.4,9.5-11.6,12.4-18.6c2.7-6.7,4.1-13.9,4.1-21.2c0-5.9-0.9-11.6-2.7-17.2c-0.4-1.3-0.9-2.7-1.4-4c-2.8-7-7-13.3-12.4-18.6
			c-1.2-1.2-2.5-2.4-3.8-3.5c-4.5-3.7-9.4-6.7-14.8-8.9c-6.7-2.7-13.9-4.1-21.2-4.1c-7.3,0-14.4,1.4-21.2,4.1c-4.9,2-9.5,4.7-13.6,8
			c-1.7,1.4-3.4,2.8-5,4.4C59.7,31.4,55.5,37.6,52.7,44.6z"/>
	</g>
	<path class="st3" d="M147.1,42.1c2.7,1.7,5.2,3.7,7.4,6c3.4,9.5,4,19.8,1.7,29.6c-1.1,2.1-2.3,4.1-3.6,6c-0.4,0.6-0.8,1.2-1.3,1.8
		l-12.7-7.5c0-0.1,0-0.2,0-0.3c0-6.8-0.7-13.6-2-20.3c0,0,0,0,0-0.1l9.9-15.4C146.7,41.8,146.9,42,147.1,42.1z"/>
	<path class="st3" d="M109.3,16c-2.2-1.1-4.4-2.1-6.8-2.8c9.8-0.4,19.8,1.9,28.6,6.9l-21.3-3.8C109.7,16.2,109.5,16.1,109.3,16z"/>
	<path class="st3" d="M109.4,19.8l25.1,4.5c2.9,3.6,5.6,7.3,7.9,11.4c0.6,1,1.2,2,1.7,3.1l-9.8,15.4c-0.2-0.1-0.5-0.1-0.7-0.2
		c-6.2-1.7-12.4-2.8-18.7-3.7c-0.4-0.1-0.7-0.1-0.9-0.1l-11.8-20.4c2-2.9,4.1-5.7,6.2-8.6C108.6,20.7,109,20.3,109.4,19.8z"/>
	<path class="st3" d="M67.6,28.5c2-2,4.1-3.8,6.3-5.4c0.4,2.9,1,5.8,1.9,8.7L63.3,55.2c-3.5,1.6-6.8,3.4-9.9,5.6
		c-0.4,0.3-0.7,0.6-1,1C53.2,49.6,58.3,37.8,67.6,28.5z"/>
	<path class="st3" d="M68.2,59c-0.5-0.9-0.9-1.8-1.4-2.7l12.2-22.7c0.1,0,0.1,0,0.2,0c6.6-1.2,13.2-1.9,19.9-1.9l12.1,21
		c-1.9,3.5-3.8,7-5.6,10.6c-1.3,2.4-2.5,4.8-3.7,7.2l-25.1,2.6C73.6,68.4,70.7,63.8,68.2,59z"/>
	<path class="st3" d="M73.3,85.9c1.2-3.1,2.5-6.3,3.7-9.4l24.5-2.5c0.3,0.4,0.6,0.8,0.9,1.1c2.9,3.3,5.8,6.5,8.7,9.8
		c0,0-0.1,0.1-0.1,0.1c1.2,1.2,2.3,2.3,3.5,3.5l-6.8,20.5c-0.5,0.1-0.9,0.2-1.4,0.3c-3.7,0.4-7.4,0.8-11.1,1c-2.3,0.1-4.6,0.2-6.9,0
		l-16.9-19C72,89.5,72.6,87.7,73.3,85.9z"/>
	<path class="st3" d="M67.6,103.1c-4.6-4.7-8.2-10-10.8-15.6c3.1,2.2,6.5,4,10.1,5.4c0.6,0.2,1.1,0.4,1.7,0.6l16.6,18.7
		c-0.1,0.8-0.2,1.6-0.2,2.4C78.6,112,72.7,108.2,67.6,103.1z"/>
	<path class="st3" d="M121.8,115.6c-0.1,0-0.1-0.1-0.1-0.1c-3.8-1.3-7.2-3.2-10.5-5.5l6.4-19.2c0,0,0.1,0,0.1,0
		c1.3-0.5,2.6-1,3.9-1.6c5.3-2.4,10.4-5.1,15.3-8.2l12.6,7.4c0,0.4-0.1,0.8-0.2,1.1c-0.8,2.2-1.7,4.5-2.6,6.7
		c-0.7,1.7-1.6,3.3-2.5,4.9c-0.6,0.7-1.2,1.3-1.9,2c-6,6-13,10.2-20.5,12.7C121.7,115.7,121.7,115.6,121.8,115.6z"/>
	<g>
		<path d="M94.4,161.6h8.5v8H75.2v-8H84v-17.1c-3.4,1.5-6,2.4-7.9,2.6V139c5.1-1.1,8.6-3.1,10.4-6h7.8V161.6z"/>
		<path d="M133.2,160.8l-0.4,8.8h-27.4v-8.3l6.1-4.3c0.9-0.6,2.6-1.9,5-4s4.1-3.6,4.8-4.7c0.7-1.1,1.1-2.2,1.1-3.4
			c0-1.1-0.3-2.1-1-2.8c-0.7-0.7-1.5-1-2.6-1c-2.6,0-4.1,2.1-4.4,6.2l-9.1-1.8c0.7-4.2,2.3-7.4,5-9.5c2.6-2.1,5.8-3.1,9.4-3.1
			c3.9,0,7.1,1,9.6,3.1c2.5,2.1,3.7,4.9,3.7,8.4c0,2.3-0.7,4.5-2,6.6c-1.3,2.1-5.3,5.3-11.8,9.6H133.2z"/>
	</g>
</g>
<g id="Laag_2">
</g>
</svg>
